<svg width="288" height="66" viewBox="0 0 288 66" fill="none" xmlns="http://www.w3.org/2000/svg">
<path d="M42.2407 0.346436H23.2924C10.4284 0.346436 0 10.7748 0 23.6389V42.5872C0 55.4512 10.4284 65.8796 23.2924 65.8796H42.2407C55.1048 65.8796 65.5331 55.4512 65.5331 42.5872V23.6389C65.5331 10.7748 55.1048 0.346436 42.2407 0.346436Z" fill="#564DFC"/>
<path fill-rule="evenodd" clip-rule="evenodd" d="M52.8882 18.6731L48.5842 24.0101C45.4826 20.6113 41.1324 18.6196 36.5329 18.4924C28.0896 18.4924 21.245 25.337 21.245 33.7803C21.245 42.2236 28.0896 49.0682 36.5329 49.0682C41.0579 48.9297 45.3631 47.0846 48.5842 43.9034L52.9312 48.7411C48.4594 53.1832 42.4555 55.7431 36.1541 55.8944C23.4314 55.8944 13.5752 46.2792 13.5752 33.8147C13.5752 21.3502 23.5605 11.9761 36.4038 11.9761C42.5547 12.0085 48.4574 14.4066 52.8882 18.6731Z" fill="white"/>
<path d="M36.7485 42.1472C41.4313 42.1472 45.2274 38.4436 45.2274 33.8749C45.2274 29.3062 41.4313 25.6025 36.7485 25.6025C32.0657 25.6025 28.2695 29.3062 28.2695 33.8749C28.2695 38.4436 32.0657 42.1472 36.7485 42.1472Z" fill="#6EE4D3"/>
<path fill-rule="evenodd" clip-rule="evenodd" d="M108.849 23.4247L105.879 27.1003C103.736 24.7497 100.726 23.3755 97.5463 23.2956C93.7118 23.186 90.1207 25.169 88.1711 28.4727C86.2215 31.7764 86.2215 35.8787 88.1711 39.1824C90.1207 42.4861 93.7118 44.4691 97.5463 44.3595C100.674 44.2716 103.651 43.0012 105.879 40.8044L108.875 44.1357C105.782 47.2054 101.627 48.9684 97.2709 49.0595C88.5509 49.0595 81.7764 42.4399 81.7764 33.8491C81.7764 25.2582 88.6628 18.8108 97.5033 18.8108C101.737 18.8364 105.799 20.4883 108.849 23.4247Z" fill="#0A1542"/>
<path fill-rule="evenodd" clip-rule="evenodd" d="M108.849 23.4247L105.879 27.1003C103.736 24.7497 100.726 23.3755 97.5463 23.2956C93.7118 23.186 90.1207 25.169 88.1711 28.4727C86.2215 31.7764 86.2215 35.8787 88.1711 39.1824C90.1207 42.4861 93.7118 44.4691 97.5463 44.3595C100.674 44.2716 103.651 43.0012 105.879 40.8044L108.875 44.1357C105.782 47.2054 101.627 48.9684 97.2709 49.0595C88.5509 49.0595 81.7764 42.4399 81.7764 33.8491C81.7764 25.2582 88.6628 18.8108 97.5033 18.8108C101.737 18.8364 105.799 20.4883 108.849 23.4247Z" fill="#0A1542"/>
<path d="M120.151 42.0956L117.285 48.8529H112.025L125.23 18.9399H130.395L143.471 48.8529H138.091L135.233 42.0956H120.151ZM127.666 24.32L122.028 37.6108H133.313L127.666 24.32Z" fill="#0A1542"/>
<path d="M158.725 18.9399C166.248 18.9399 170.561 22.65 170.561 29.1491C170.561 35.8978 166.257 39.8317 158.725 39.8317H151.838V48.8529H146.794V18.9399H158.725ZM151.838 35.2953H158.501C163.123 35.2953 165.723 33.3326 165.723 29.2696C165.723 25.2066 163.141 23.4592 158.501 23.4592H151.847L151.838 35.2953Z" fill="#0A1542"/>
<path fill-rule="evenodd" clip-rule="evenodd" d="M187.32 23.4678V48.8529H182.276V23.4678H172.807V18.9399H196.78V23.4678H187.32Z" fill="#0A1542"/>
<path fill-rule="evenodd" clip-rule="evenodd" d="M226.96 36.5004C226.96 44.3165 222.045 49.1026 213.971 49.1026C205.897 49.1026 200.93 44.2476 200.93 36.5004V18.9399H205.974V36.5004C205.974 41.5447 209.099 44.5747 214.014 44.5747C218.929 44.5747 221.916 41.5877 221.916 36.5004V18.9399H226.96V36.5004Z" fill="#0A1542"/>
<path d="M247.8 39.7887C247.37 39.7887 246.939 39.7887 246.432 39.7887H239.304V48.8529H234.26V18.9399H246.397C254.05 18.9399 258.448 22.65 258.448 29.1491C258.448 33.9352 256.228 37.3095 252.251 38.8504L258.965 48.8529H253.232L247.8 39.7887ZM246.432 35.3039C251.045 35.3039 253.697 33.3412 253.697 29.2782C253.697 25.2152 251.045 23.4678 246.432 23.4678H239.304V35.3039H246.432Z" fill="#0A1542"/>
<path fill-rule="evenodd" clip-rule="evenodd" d="M271.541 23.5883V31.6626H286.175V36.1991H271.541V44.4456H288V48.9734H266.479V19.0432H287.853V23.5883H271.541Z" fill="#0A1542"/>
<path d="M97.7279 39.5907C100.951 39.5907 103.564 37.0394 103.564 33.8921C103.564 30.7449 100.951 28.1936 97.7279 28.1936C94.5046 28.1936 91.8916 30.7449 91.8916 33.8921C91.8916 37.0394 94.5046 39.5907 97.7279 39.5907Z" fill="#0A1542"/>
</svg>
