<?xml version="1.0" encoding="UTF-8"?>
<svg width="31px" height="31px" viewBox="0 0 31 31" version="1.1" xmlns="http://www.w3.org/2000/svg" xmlns:xlink="http://www.w3.org/1999/xlink">
    <!-- Generator: Sketch 52.6 (67491) - http://www.bohemiancoding.com/sketch -->
    <title>icon-youtube</title>
    <desc>Created with Sketch.</desc>
    <g id="Symbols" stroke="none" stroke-width="1" fill="none" fill-rule="evenodd">
        <g id="Footer-new" transform="translate(-1488.000000, -494.000000)" fill="#FFFFFF">
            <g id="Footer" transform="translate(-4.000000, 0.000000)">
                <g id="Copyright" transform="translate(0.000000, 438.000000)">
                    <g id="Col.3" transform="translate(1341.000000, 56.000000)">
                        <g id="Social-Icons">
                            <g id="icon-youtube" transform="translate(151.115006, 0.000000)">
                                <polygon id="Path" points="13.4276375 18.0685714 18.397179 15.2121429 13.4276375 12.3667857"></polygon>
                                <path d="M15.3620899,2.05645026e-13 C9.17821747,1.62862127e-06 3.60345865,3.71021778 1.23803305,9.40010244 C-1.12739256,15.0899871 0.182504816,21.6386308 4.5567533,25.9915674 C8.93100179,30.344504 15.5078727,31.6442034 21.2197341,29.2844503 C26.9315955,26.9246971 30.6532084,21.3703638 30.648711,15.2121429 C30.6487121,11.1757127 29.0378073,7.3047659 26.1706897,4.45161725 C23.3035721,1.5984686 19.4153312,-0.00293772206 15.3620899,2.05645026e-13 Z M24.912059,15.2342857 C24.9285723,16.7663547 24.8057782,18.296767 24.5451801,19.8067857 C24.3186708,20.6225937 23.6759968,21.2583913 22.8553136,21.4785714 C20.3764255,21.7740946 17.8807296,21.9072381 15.384325,21.8771429 C12.872762,21.9095393 10.3618755,21.7726792 7.86886619,21.4675 C7.04966027,21.2419302 6.41121442,20.6019219 6.19011725,19.7846429 C5.92133831,18.2753943 5.79109609,16.7449109 5.80100326,15.2121429 C5.79183114,13.6794035 5.92206772,12.1489863 6.19011725,10.6396429 C6.41766839,9.82375862 7.05264856,9.18303681 7.86886619,8.94571429 C10.3483991,8.65860596 12.8437874,8.52917691 15.3398548,8.55821429 C17.8366009,8.52730749 20.3325969,8.6641658 22.8108435,8.96785714 C23.6486164,9.17427401 24.3107316,9.81250929 24.5451801,10.6396429 C24.8118533,12.1563487 24.9346872,13.6946707 24.912059,15.2342857 Z" id="Shape" fill-rule="nonzero"></path>
                            </g>
                        </g>
                    </g>
                </g>
            </g>
        </g>
    </g>
</svg>