<?xml version="1.0" encoding="UTF-8"?>
<svg width="31px" height="31px" viewBox="0 0 31 31" version="1.1" xmlns="http://www.w3.org/2000/svg" xmlns:xlink="http://www.w3.org/1999/xlink">
    <!-- Generator: Sketch 52.6 (67491) - http://www.bohemiancoding.com/sketch -->
    <title>icon-github</title>
    <desc>Created with Sketch.</desc>
    <g id="Symbols" stroke="none" stroke-width="1" fill="none" fill-rule="evenodd">
        <g id="Footer-new" transform="translate(-1337.000000, -494.000000)" fill="#FFFFFF">
            <g id="Footer" transform="translate(-4.000000, 0.000000)">
                <g id="Copyright" transform="translate(0.000000, 438.000000)">
                    <g id="Col.3" transform="translate(1341.000000, 56.000000)">
                        <g id="Social-Icons">
                            <g id="icon-github">
                                <path d="M28.3527466,7.79096429 C27.0206714,5.41454078 25.1033188,3.44149446 22.7939752,2.07072619 C20.4884929,0.693846716 17.8662336,-0.021256613 15.2006936,1.90850482e-13 C12.5215849,-0.0221822896 9.88645704,0.701193491 7.57405941,2.09360714 C5.26567983,3.46566829 3.34861968,5.43841368 2.0152881,7.81384524 C0.673820159,10.188993 -0.021279201,12.8920781 0.00301288418,15.639131 C-0.0210813924,18.9332052 0.997454186,22.1458372 2.90469151,24.7915119 C4.74858846,27.4489019 7.37048701,29.4293481 10.3867977,30.4431071 C10.6561862,30.5286717 10.9490441,30.4777368 11.1761432,30.3058214 C11.349332,30.1505114 11.446991,29.924396 11.4429642,29.6880357 C11.4429642,29.6880357 11.4429642,29.287619 11.4429642,28.5439881 C11.4429642,27.8003571 11.4429642,27.2512143 11.4429642,26.7363929 L10.987145,26.8164762 C10.6199382,26.8795349 10.2472902,26.9025432 9.87539073,26.885119 C9.41335977,26.8717813 8.95275798,26.8259122 8.49681544,26.7478333 C8.0151487,26.6505302 7.56216203,26.4390024 7.17382787,26.1300476 C6.76629648,25.8167746 6.46330146,25.3810594 6.30665955,24.8830357 L6.10654378,24.4139762 C5.94168192,24.0417735 5.73255523,23.6920715 5.48396139,23.3728929 C5.26355924,23.0465066 4.96990465,22.7796424 4.62791061,22.5949405 L4.45002993,22.5835 C4.35678017,22.5086738 4.27111114,22.4243492 4.19432645,22.3318095 C4.12153701,22.2461087 4.06158319,22.1497098 4.01644577,22.0457976 C4.01644577,21.9542738 4.01644577,21.8741905 4.11650365,21.8169881 C4.30656001,21.7374655 4.51337249,21.7098778 4.71685095,21.7369048 L5.10596495,21.7941071 C5.45951598,21.8925642 5.79156671,22.0595293 6.0843087,22.2860476 C6.47581506,22.5620796 6.80556767,22.9209123 7.0515349,23.3385714 C7.31777117,23.8506238 7.69891271,24.289902 8.16328916,24.6199048 C8.54676001,24.8914937 8.99867449,25.0425328 9.46404165,25.0546429 C9.83707187,25.0595049 10.2096039,25.0250032 10.5757959,24.9516786 C10.8835243,24.8869133 11.1822682,24.7831585 11.4651993,24.6427857 C11.5344847,23.8461132 11.8820708,23.1022961 12.4435431,22.5491786 C11.7574028,22.4798833 11.0773091,22.3575055 10.4090328,22.1830833 C9.75779152,22.0038248 9.13321222,21.7344205 8.55240316,21.38225 C7.9385874,21.043542 7.39778293,20.5804295 6.96259456,20.0208333 C6.4853165,19.3825159 6.13063859,18.656438 5.91754556,17.8814643 C5.6553666,16.9020677 5.53548081,15.8881358 5.56178419,14.872619 C5.53250039,13.3218447 6.09069218,11.8201841 7.11824016,10.6854048 C6.63471614,9.33526679 6.68662886,7.84359818 7.26276821,6.5325119 C7.81627087,6.42958885 8.38716418,6.50552115 8.89704698,6.74988095 C9.46328556,6.96738468 10.0132311,7.22740194 10.5424433,7.52783333 C10.8982046,7.74520238 11.1761432,7.92825 11.3873765,8.07697619 C13.8725732,7.37550041 16.4954615,7.37550041 18.9806581,8.07697619 L19.736651,7.59647619 C20.3141923,7.23451482 20.9248823,6.93179606 21.559928,6.69267857 C22.0578757,6.44807604 22.6182951,6.37198394 23.1608542,6.47530952 C23.7562848,7.77910611 23.824265,9.2728476 23.3498524,10.6282024 C24.3911602,11.7763954 24.9469737,13.3029893 24.8951908,14.872619 C24.9009712,15.8924781 24.7547438,16.907219 24.4616066,17.8814643 C24.2529832,18.658218 23.8978903,19.3851454 23.4165576,20.0208333 C22.9659578,20.5691228 22.4237999,21.0301702 21.8156315,21.38225 C21.2304146,21.7224383 20.6068909,21.9875451 19.9590019,22.1716429 C19.2907256,22.346065 18.6106318,22.4684429 17.9244916,22.5377381 C18.6717886,23.2953152 19.051002,24.3569047 18.958423,25.4321786 L18.958423,29.7452381 C18.9505383,29.974309 19.0398002,30.1955953 19.203009,30.3515833 C19.4206748,30.5347555 19.7141744,30.5908459 19.981237,30.5003095 C23.0009033,29.4872594 25.626555,27.5069207 27.4744607,24.8487143 C29.3770092,22.2012244 30.3915216,18.9889748 30.3650218,15.6963333 C30.4033931,12.9221785 29.7078081,10.1895224 28.3527466,7.79096429 Z" id="Path"></path>
                            </g>
                        </g>
                    </g>
                </g>
            </g>
        </g>
    </g>
</svg>